<?xml version="1.0" encoding="utf-8"?>
<svg width="60px" height="45.177433px" viewBox="0 0 60 45.177433" version="1.1" xmlns:xlink="http://www.w3.org/1999/xlink" xmlns="http://www.w3.org/2000/svg">
  <defs>
    <path d="M0 45.1774L60 45.1774L60 0L0 0L0 45.1774Z" id="path_1" />
    <clipPath id="mask_1">
      <use xlink:href="#path_1" />
    </clipPath>
  </defs>
  <g id="Group-15">
    <path d="M0 45.1774L60 45.1774L60 0L0 0L0 45.1774Z" id="Clip-4" fill="none" fill-rule="evenodd" stroke="none" />
    <g clip-path="url(#mask_1)">
      <path d="M48.9871 32.1344L40.2356 32.1344L40.2356 30.5947C40.2356 29.0463 41.3724 27.7324 42.9045 27.5092L48.9871 26.6716" id="Stroke-5" fill="none" fill-rule="evenodd" stroke="#3E3E3E" stroke-width="2" stroke-linecap="round" />
      <path d="M12.7416 39.102L12.7416 40.1263C12.7416 42.7159 10.6422 44.8153 8.05219 44.8153C5.46261 44.8153 3.36317 42.7159 3.36317 40.1263L3.36317 25.6451C3.36317 24.729 2.87136 23.8835 2.07531 23.4302L0.947748 22.7886C0.596093 22.6602 0.361936 22.3253 0.361936 21.951L0.361936 18.9515C0.361936 18.4588 0.76101 18.0597 1.25366 18.0597L4.15838 18.0597C5.36903 18.0597 6.48317 17.398 7.06311 16.335L11.2989 8.56883C12.1277 7.04891 13.7206 6.10305 15.4521 6.10305L28.196 6.10305L40.9395 6.10305C42.6709 6.10305 44.2639 7.04891 45.0926 8.56841L49.3289 16.335C49.9088 17.3984 51.0229 18.0597 52.234 18.0597L55.1379 18.0597C55.6305 18.0597 56.0296 18.4588 56.0296 18.9515L56.0296 21.951C56.0296 22.3253 55.7959 22.6602 55.4442 22.7886L54.3171 23.4302C53.5206 23.8835 53.0288 24.729 53.0288 25.6451L53.0288 40.1263C53.0288 42.7159 50.9298 44.8153 48.3398 44.8153C45.7502 44.8153 43.6508 42.7159 43.6508 40.1263L43.6508 39.102L12.7416 39.102Z" id="Stroke-6" fill="none" fill-rule="evenodd" stroke="#3E3E3E" stroke-width="2" stroke-linecap="round" />
      <path d="M45.1979 18.1317L33.1077 18.1317L11.1939 18.1317" id="Stroke-7" fill="none" fill-rule="evenodd" stroke="#3E3E3E" stroke-width="2" stroke-linecap="round" />
      <path d="M7.4041 26.6717L13.4871 27.5093C15.0192 27.7325 16.156 29.0464 16.156 30.5949L16.156 32.1345L7.4041 32.1345" id="Stroke-8" fill="none" fill-rule="evenodd" stroke="#3E3E3E" stroke-width="2" stroke-linecap="round" />
      <path d="M21.5589 30.1933L21.2144 27.2088L28.1959 27.2088L35.177 27.2088L34.8329 30.1933C34.6961 31.3787 33.6919 32.2738 32.4984 32.2738L23.8934 32.2738C22.6995 32.2738 21.6957 31.3792 21.5589 30.1933Z" id="Stroke-9" fill="none" fill-rule="evenodd" stroke="#3E3E3E" stroke-width="2" stroke-linecap="round" />
      <path d="M43.6506 39.102L48.9871 39.102" id="Stroke-10" fill="none" fill-rule="evenodd" stroke="#3E3E3E" stroke-width="2" stroke-linecap="round" />
      <path d="M12.7416 39.102L7.40427 39.102" id="Stroke-11" fill="none" fill-rule="evenodd" stroke="#3E3E3E" stroke-width="2" stroke-linecap="round" />
    </g>
  </g>
</svg>