<?xml version="1.0" encoding="utf-8"?>
<svg width="64.89111px" height="62px" viewBox="0 0 64.89111 62" version="1.1" xmlns:xlink="http://www.w3.org/1999/xlink" xmlns="http://www.w3.org/2000/svg">
  <g id="Group-22" transform="translate(1 1)">
    <path d="M46.8624 37.8405L40.755 43.948" id="Stroke-1" fill="none" fill-rule="evenodd" stroke="#3E3E3E" stroke-width="2" stroke-linecap="round" />
    <path d="M31.791 35.0316L37.8988 28.9238" id="Stroke-2" fill="none" fill-rule="evenodd" stroke="#3E3E3E" stroke-width="2" stroke-linecap="round" />
    <g id="Group-21">
      <path d="M46.8593 37.8374C48.2935 38.9308 50.3508 38.8226 51.6609 37.5121L51.6609 37.5121C53.0897 36.0834 53.0897 33.7671 51.6609 32.3383L43.4244 24.1018C41.996 22.673 39.6794 22.673 38.251 24.1018C36.8222 25.5305 36.8222 27.8468 38.251 29.2756L42.3952 33.4198" id="Stroke-3" fill="none" fill-rule="evenodd" stroke="#3E3E3E" stroke-width="2" stroke-linecap="round" />
      <path d="M31.791 35.0316C30.3571 33.9411 28.302 34.0504 26.9929 35.3598L26.9929 35.3598C25.5642 36.7882 25.5642 39.1048 26.9929 40.5336L35.2295 48.7702C36.6579 50.1986 38.9745 50.1986 40.4029 48.7702L40.4033 48.7702C41.8317 47.3414 41.8317 45.0251 40.4033 43.5963L36.0643 39.2577" id="Stroke-5" fill="none" fill-rule="evenodd" stroke="#3E3E3E" stroke-width="2" stroke-linecap="round" />
      <path d="M47.315 41.3611L62.2569 56.303C63.1026 57.1487 63.1026 58.5201 62.2569 59.3658C61.4109 60.2114 60.0398 60.2114 59.1942 59.3658L44.2523 44.4239" id="Stroke-7" fill="none" fill-rule="evenodd" stroke="#3E3E3E" stroke-width="2" stroke-linecap="round" />
      <path d="M56.4214 21.2253L28.2105 0L0 21.2253" id="Stroke-9" fill="none" fill-rule="evenodd" stroke="#3E3E3E" stroke-width="2" stroke-linecap="round" stroke-linejoin="round" />
      <path d="M5.29288 17.2431L5.29288 51.9668" id="Stroke-11" fill="none" fill-rule="evenodd" stroke="#3E3E3E" stroke-width="2" stroke-linecap="round" stroke-linejoin="round" />
      <path d="M51.1285 17.2431L51.1285 24.7101" id="Stroke-13" fill="none" fill-rule="evenodd" stroke="#3E3E3E" stroke-width="2" stroke-linecap="round" stroke-linejoin="round" />
      <path d="M5.29288 51.9667L24.1406 51.9667" id="Stroke-15" fill="none" fill-rule="evenodd" stroke="#3E3E3E" stroke-width="2" stroke-linecap="round" stroke-linejoin="round" />
      <path d="M38.9892 15.2282C33.8998 11.3987 28.2106 7.11855 28.2106 7.11855L17.4321 15.2282" id="Stroke-17" fill="none" fill-rule="evenodd" stroke="#3E3E3E" stroke-width="2" stroke-linecap="round" stroke-linejoin="round" />
      <path d="M19.7394 55.9644L45.6271 55.9644" id="Stroke-19" fill="none" fill-rule="evenodd" stroke="#3E3E3E" stroke-width="2" stroke-linecap="round" />
    </g>
  </g>
</svg>