<?xml version="1.0" encoding="utf-8"?>
<svg width="61.725006px" height="51.46732px" viewBox="0 0 61.725006 51.46732" version="1.1" xmlns:xlink="http://www.w3.org/1999/xlink" xmlns="http://www.w3.org/2000/svg">
  <g id="Group-17" transform="translate(0.86250305 0.86249924)">
    <path d="M50.8681 49.7423L9.13179 49.7423C7.86058 49.7423 6.8296 48.7117 6.8296 47.4401L6.8296 46.2722C6.8296 45.0006 7.86058 43.9696 9.13179 43.9696L50.8681 43.9696C52.1397 43.9696 53.1703 45.0006 53.1703 46.2718L53.1703 47.4401C53.1703 48.7117 52.1397 49.7423 50.8681 49.7423Z" id="Stroke-1" fill="none" fill-rule="evenodd" stroke="#3E3E3E" stroke-width="1.725" stroke-linecap="round" stroke-linejoin="round" />
    <path d="M43.8702 43.9698L43.8702 43.6029C43.8702 37.4293 38.8652 32.4248 32.692 32.4248L27.308 32.4248C21.1344 32.4248 16.1299 37.4293 16.1299 43.6029L16.1299 43.9698" id="Stroke-3" fill="none" fill-rule="evenodd" stroke="#3E3E3E" stroke-width="1.725" stroke-linecap="round" stroke-linejoin="round" />
    <path d="M30 32.4247L30 6.62743" id="Stroke-5" fill="none" fill-rule="evenodd" stroke="#3E3E3E" stroke-width="1.725" stroke-linecap="round" stroke-linejoin="round" />
    <path d="M33.3139 3.31366C33.3139 1.48353 31.8303 0 29.9998 0C28.1697 0 26.6862 1.48353 26.6862 3.31366C26.6862 5.14416 28.1697 6.62769 29.9998 6.62769C31.8303 6.62769 33.3139 5.14416 33.3139 3.31366Z" id="Stroke-7" fill="none" fill-rule="evenodd" stroke="#3E3E3E" stroke-width="1.725" stroke-linecap="round" stroke-linejoin="round" />
    <path d="M9.97673 10.1635L9.97673 5.23781L26.6862 3.31358" id="Stroke-9" fill="none" fill-rule="evenodd" stroke="#3E3E3E" stroke-width="1.725" stroke-linecap="round" stroke-linejoin="round" />
    <path d="M50.0233 10.1635L50.0233 5.23781L33.3138 3.31358" id="Stroke-11" fill="none" fill-rule="evenodd" stroke="#3E3E3E" stroke-width="1.725" stroke-linecap="round" stroke-linejoin="round" />
    <path d="M19.9535 14.2913L19.9535 14.2913C19.9535 19.4902 15.7389 23.7044 10.54 23.7044L9.41343 23.7044C4.21456 23.7044 0 19.4902 0 14.2913L19.9535 14.2913Z" id="Stroke-13" fill="none" fill-rule="evenodd" stroke="#3E3E3E" stroke-width="1.725" stroke-linecap="round" stroke-linejoin="round" />
    <path d="M60 14.2913L60 14.2913C60 19.4902 55.7854 23.7044 50.5866 23.7044L49.46 23.7044C44.2611 23.7044 40.0465 19.4902 40.0465 14.2913L60 14.2913Z" id="Stroke-15" fill="none" fill-rule="evenodd" stroke="#3E3E3E" stroke-width="1.725" stroke-linecap="round" stroke-linejoin="round" />
  </g>
</svg>