<?xml version="1.0" encoding="utf-8"?>
<svg width="38.102966px" height="41.5px" viewBox="0 0 38.102966 41.5" version="1.1" xmlns:xlink="http://www.w3.org/1999/xlink" xmlns="http://www.w3.org/2000/svg">
  <g id="Group-21" transform="translate(0.75 0.75)">
    <path d="M33.9942 32.253L33.9942 40" id="Stroke-1" fill="none" fill-rule="evenodd" stroke="#F84C6E" stroke-width="1.5" stroke-linecap="round" />
    <path d="M2.60881 40L2.60881 32.253" id="Stroke-3" fill="none" fill-rule="evenodd" stroke="#F84C6E" stroke-width="1.5" stroke-linecap="round" />
    <path d="M13.4942 28.0826L2.5571 28.0826C1.14467 28.0826 0 29.2275 0 30.6397L0 32.253L36.603 32.253L36.603 30.6397C36.603 29.2275 35.4583 28.0826 34.0459 28.0826L23.0735 28.0826" id="Stroke-5" fill="none" fill-rule="evenodd" stroke="#F84C6E" stroke-width="1.5" stroke-linecap="round" />
    <path d="M19.6763 21.1631L21.1828 27.2621L18.3015 29.9195L15.4201 27.2621L16.9266 21.1631" id="Stroke-7" fill="none" fill-rule="evenodd" stroke="#F84C6E" stroke-width="1.5" stroke-linecap="round" stroke-linejoin="round" />
    <path d="M31.1322 26.283L30.147 21.8075C30.0853 21.5003 29.9443 21.1885 29.7724 20.8982C29.2843 20.0744 28.5306 19.4386 27.6542 19.0518C27.3296 18.9085 27.0007 18.7776 26.7915 18.7317L22.5078 17.4878C22.4148 17.4608 22.3266 17.4196 22.2463 17.3654C22.0205 17.2133 21.8725 16.9704 21.8411 16.6998L21.6434 15.0048C22.843 14.0732 23.73 12.6815 24.1559 11.0557C24.9205 10.9878 25.5082 10.1371 25.5082 9.06398C25.5082 8.07199 25.01 7.26999 24.3275 7.09866" id="Stroke-9" fill="none" fill-rule="evenodd" stroke="#F84C6E" stroke-width="1.5" stroke-linecap="round" />
    <path d="M12.2393 7.10944C11.576 7.29866 11.096 8.08951 11.096 9.06388C11.096 10.136 11.6799 10.9857 12.4438 11.0556C12.8721 12.6796 13.7588 14.0721 14.9574 15.0047L14.7617 16.6997C14.7303 16.9703 14.5823 17.2134 14.3565 17.3656C14.2764 17.4198 14.1883 17.461 14.0953 17.4879L9.82608 18.7272C9.69933 18.7552 9.53681 18.8073 9.36158 18.8708C8.32656 19.2469 7.42166 19.9382 6.84932 20.8794C6.66606 21.1811 6.51702 21.5007 6.4561 21.8074L5.53072 26.2829" id="Stroke-11" fill="none" fill-rule="evenodd" stroke="#F84C6E" stroke-width="1.5" stroke-linecap="round" />
    <path d="M24.3275 7.09871C24.3275 7.09871 24.6816 0 18.3006 0C11.9199 0 12.2393 7.10934 12.2393 7.10934" id="Stroke-13" fill="none" fill-rule="evenodd" stroke="#F84C6E" stroke-width="1.5" stroke-linecap="round" />
    <path d="M12.6937 4.05953C12.942 3.55018 13.4277 3.15878 13.9604 2.96515C14.8249 2.65073 15.7938 2.90216 16.6308 3.28398C17.8395 3.83557 18.8953 4.48489 20.2501 4.6342C21.5413 4.77624 22.7243 4.63316 23.8843 4.04164" id="Stroke-15" fill="none" fill-rule="evenodd" stroke="#F84C6E" stroke-width="1.5" stroke-linecap="round" />
    <path d="M21.7955 16.3029L19.9979 17.9126C19.0323 18.7773 17.5707 18.7773 16.6048 17.9126L14.8075 16.3029" id="Stroke-17" fill="none" fill-rule="evenodd" stroke="#F84C6E" stroke-width="1.5" stroke-linecap="round" stroke-linejoin="round" />
    <path d="M23.4683 23.7114L27.4845 23.4724" id="Stroke-19" fill="none" fill-rule="evenodd" stroke="#F84C6E" stroke-width="1.5" stroke-linecap="round" stroke-linejoin="round" />
  </g>
</svg>