<?xml version="1.0" encoding="utf-8"?>
<svg width="40.090454px" height="41.5px" viewBox="0 0 40.090454 41.5" version="1.1" xmlns:xlink="http://www.w3.org/1999/xlink" xmlns="http://www.w3.org/2000/svg">
  <g id="Group-42" transform="translate(0.75 0.75)">
    <path d="M6.71441 22.2271L6.71441 34.3108" id="Stroke-1" fill="none" fill-rule="evenodd" stroke="#F93F64" stroke-width="1.5" stroke-linecap="round" />
    <path d="M9.30409 34.3108L9.30409 26.8884" id="Stroke-2" fill="none" fill-rule="evenodd" stroke="#F93F64" stroke-width="1.5" stroke-linecap="round" />
    <path d="M11.8938 26.8884L11.8938 34.3109" id="Stroke-3" fill="none" fill-rule="evenodd" stroke="#F93F64" stroke-width="1.5" stroke-linecap="round" />
    <path d="M11.8938 22.2271L11.8938 26.8883" id="Stroke-4" fill="none" fill-rule="evenodd" stroke="#F93F64" stroke-width="1.5" stroke-linecap="round" />
    <g id="Group-41">
      <path d="M11.2649 17.4007C11.2649 18.4837 10.387 19.3617 9.30399 19.3617C8.22125 19.3617 7.34329 18.4837 7.34329 17.4007C7.34329 16.3177 8.22125 15.44 9.30399 15.44C10.387 15.44 11.2649 16.3177 11.2649 17.4007Z" id="Stroke-5" fill="none" fill-rule="evenodd" stroke="#F93F64" stroke-width="1.5" stroke-linecap="round" />
      <path d="M6.71441 26.8884L11.8937 26.8884" id="Stroke-7" fill="none" fill-rule="evenodd" stroke="#F93F64" stroke-width="1.5" stroke-linecap="round" />
      <path d="M9.30409 20.6592L9.30409 22.9317" id="Stroke-9" fill="none" fill-rule="evenodd" stroke="#F93F64" stroke-width="1.5" stroke-linecap="round" />
      <path d="M9.30409 20.6592L11.6022 20.6592L14.4369 17.8245L14.4369 15.3666" id="Stroke-11" fill="none" fill-rule="evenodd" stroke="#F93F64" stroke-width="1.5" stroke-linecap="round" />
      <path d="M9.30404 20.6592L7.00594 20.6592L4.17124 17.8245L4.17124 15.3666" id="Stroke-13" fill="none" fill-rule="evenodd" stroke="#F93F64" stroke-width="1.5" stroke-linecap="round" />
      <path d="M26.6966 22.2271L26.6966 34.3108" id="Stroke-15" fill="none" fill-rule="evenodd" stroke="#F93F64" stroke-width="1.5" stroke-linecap="round" />
      <path d="M29.2864 34.3108L29.2864 26.8884" id="Stroke-17" fill="none" fill-rule="evenodd" stroke="#F93F64" stroke-width="1.5" stroke-linecap="round" />
      <path d="M31.8761 26.8884L31.8761 34.3109" id="Stroke-19" fill="none" fill-rule="evenodd" stroke="#F93F64" stroke-width="1.5" stroke-linecap="round" />
      <path d="M31.8761 22.2271L31.8761 26.8883" id="Stroke-21" fill="none" fill-rule="evenodd" stroke="#F93F64" stroke-width="1.5" stroke-linecap="round" />
      <path d="M31.2472 17.4007C31.2472 18.4837 30.3692 19.3617 29.2862 19.3617C28.2035 19.3617 27.3255 18.4837 27.3255 17.4007C27.3255 16.3177 28.2035 15.44 29.2862 15.44C30.3692 15.44 31.2472 16.3177 31.2472 17.4007Z" id="Stroke-23" fill="none" fill-rule="evenodd" stroke="#F93F64" stroke-width="1.5" stroke-linecap="round" />
      <path d="M26.6966 26.8884L31.8759 26.8884" id="Stroke-25" fill="none" fill-rule="evenodd" stroke="#F93F64" stroke-width="1.5" stroke-linecap="round" />
      <path d="M29.2864 20.6592L29.2864 22.9317" id="Stroke-27" fill="none" fill-rule="evenodd" stroke="#F93F64" stroke-width="1.5" stroke-linecap="round" />
      <path d="M29.2864 20.6592L31.5844 20.6592L34.4192 17.8245L34.4192 15.3666" id="Stroke-29" fill="none" fill-rule="evenodd" stroke="#F93F64" stroke-width="1.5" stroke-linecap="round" />
      <path d="M29.2863 20.6592L26.9882 20.6592L24.1535 17.8245L24.1535 15.3666" id="Stroke-31" fill="none" fill-rule="evenodd" stroke="#F93F64" stroke-width="1.5" stroke-linecap="round" />
      <path d="M19.2952 0L0 10.6979L38.5905 10.6979L19.2952 0Z" id="Stroke-33" fill="none" fill-rule="evenodd" stroke="#F93F64" stroke-width="1.5" stroke-linecap="round" />
      <path d="M35.8114 10.6979L35.8114 13.1088L2.77906 13.1088L2.77906 10.6979" id="Stroke-35" fill="none" fill-rule="evenodd" stroke="#F93F64" stroke-width="1.5" stroke-linecap="round" />
      <path d="M35.8114 37.3768L35.8114 34.311L2.77906 34.311L2.77906 37.3768" id="Stroke-37" fill="none" fill-rule="evenodd" stroke="#F93F64" stroke-width="1.5" stroke-linecap="round" />
      <path d="M38.5905 40L2.6421e-05 40L2.6421e-05 39.493C2.6421e-05 38.3244 0.947482 37.3769 2.11608 37.3769L36.4742 37.3769C37.643 37.3769 38.5905 38.3244 38.5905 39.493L38.5905 40Z" id="Stroke-39" fill="none" fill-rule="evenodd" stroke="#F93F64" stroke-width="1.5" stroke-linecap="round" />
    </g>
  </g>
</svg>