<?xml version="1.0" encoding="utf-8"?>
<svg width="51.422607px" height="49.756844px" viewBox="0 0 51.422607 49.756844" version="1.1" xmlns:xlink="http://www.w3.org/1999/xlink" xmlns="http://www.w3.org/2000/svg">
  <defs>
    <filter id="filter_1">
      <feColorMatrix in="SourceGraphic" type="matrix" values="0 0 0 0 1 0 0 0 0 1 0 0 0 0 1 0 0 0 1 0" color-interpolation-filters="sRGB" />
    </filter>
    <path d="M0 48.3333L50 48.3333L50 0L0 0L0 48.3333Z" id="path_1" />
    <clipPath id="mask_1">
      <use xlink:href="#path_1" />
    </clipPath>
  </defs>
  <g id="Group-18" transform="translate(0.7112427 0.7117691)" filter="url(#filter_1)">
    <path d="M15 13.2056L17.8641 15.8333L22.5 10" id="Stroke-1" fill="none" fill-rule="evenodd" stroke="#FFFFFF" stroke-width="1.73" stroke-linecap="round" />
    <g id="Group-17">
      <path d="M47.8938 42.0825L47.8938 42.0825C48.9 42.0785 49.713 41.2619 49.7114 40.2568L49.6679 9.83152L46.0181 9.84623L46.0616 40.2618C46.0629 41.2706 46.884 42.0865 47.8938 42.0825Z" id="Stroke-2" fill="none" fill-rule="evenodd" stroke="#FFFFFF" stroke-width="2" stroke-linecap="round" stroke-linejoin="round" />
      <path d="M47.843 2.31368L47.843 2.31368C48.8508 2.31368 49.6679 3.12993 49.6679 4.13671L49.6679 9.83142L46.0181 9.83142L46.0181 4.13671C46.0181 3.12993 46.8352 2.31368 47.843 2.31368Z" id="Stroke-4" fill="none" fill-rule="evenodd" stroke="#FFFFFF" stroke-width="2" stroke-linecap="round" />
      <path d="M47.866 42.0898L47.866 46.0196" id="Stroke-6" fill="none" fill-rule="evenodd" stroke="#FFFFFF" stroke-width="2" stroke-linecap="round" stroke-linejoin="round" />
      <path d="M36.7937 3.94007L40.6085 3.94007L40.6085 39.425C40.6085 44.1858 36.7452 48.0451 31.9795 48.0451L3.41329 48.0451L3.41329 44.2342" id="Stroke-8" fill="none" fill-rule="evenodd" stroke="#FFFFFF" stroke-width="2" stroke-linecap="round" />
      <path d="M27.3522 0.288228L0.28876 0.288228L0.28876 44.2341L29.0038 44.2341C30.3255 44.2341 31.3969 43.1638 31.3969 41.8435L31.3969 38.8429L34.4006 38.8429C35.7223 38.8429 36.7937 37.7726 36.7937 36.4523L36.7937 0.288228L27.3522 0.288228" id="Stroke-10" fill="none" fill-rule="evenodd" stroke="#FFFFFF" stroke-width="2" stroke-linecap="round" />
      <path d="M0 48.3333L50 48.3333L50 0L0 0L0 48.3333Z" id="Clip-13" fill="none" fill-rule="evenodd" stroke="none" />
      <g clip-path="url(#mask_1)">
        <path d="M12.2838 19.4463L24.7986 19.4463L24.7986 6.94449L12.2838 6.94449L12.2838 19.4463Z" id="Stroke-12" fill="none" fill-rule="evenodd" stroke="#FFFFFF" stroke-width="2" stroke-linecap="round" />
        <path d="M12.2838 36.3386L24.7986 36.3386L24.7986 23.8368L12.2838 23.8368L12.2838 36.3386Z" id="Stroke-14" fill="none" fill-rule="evenodd" stroke="#FFFFFF" stroke-width="2" stroke-linecap="round" />
        <path d="M14.763 26.3135L22.3192 33.8619" id="Stroke-15" fill="none" fill-rule="evenodd" stroke="#FFFFFF" stroke-width="2" stroke-linecap="round" />
        <path d="M14.763 33.862L22.3192 26.3136" id="Stroke-16" fill="none" fill-rule="evenodd" stroke="#FFFFFF" stroke-width="2" stroke-linecap="round" />
      </g>
    </g>
  </g>
</svg>