<?xml version="1.0" encoding="utf-8"?>
<svg width="47.100006px" height="41.5px" viewBox="0 0 47.100006 41.5" version="1.1" xmlns:xlink="http://www.w3.org/1999/xlink" xmlns="http://www.w3.org/2000/svg">
  <g id="Group-15" transform="translate(0.75 0.75)">
    <path d="M44.8 19.2L44.8 38.1747C44.8 39.1827 43.9841 40 42.9776 40L3.42215 40C2.41589 40 1.6 39.1827 1.6 38.1747L1.6 19.2" id="Stroke-1" fill="none" fill-rule="evenodd" stroke="#F93F64" stroke-width="1.5" stroke-linecap="round" stroke-linejoin="round" />
    <path d="M20.1492 20.8C13.6311 20.6675 7.12012 20.0457 0.669727 18.9349C0.283074 18.8682 0 18.5254 0 18.1261L0 7.43431C0 6.4213 0.807145 5.6 1.80261 5.6L43.7974 5.6C44.7929 5.6 45.6 6.4213 45.6 7.43431L45.6 18.1261C45.6 18.5254 45.3169 18.8682 44.93 18.9349C38.4796 20.0457 31.9686 20.6675 25.4502 20.8" id="Stroke-3" fill="none" fill-rule="evenodd" stroke="#F93F64" stroke-width="1.5" stroke-linecap="round" stroke-linejoin="round" />
    <path d="M25.1048 18.4L20.4952 18.4C20.2216 18.4 20 18.6214 20 18.8946L20 23.5054C20 23.7786 20.2216 24 20.4952 24L25.1048 24C25.3784 24 25.6 23.7786 25.6 23.5054L25.6 18.8946C25.6 18.6214 25.3784 18.4 25.1048 18.4Z" id="Stroke-5" fill="none" fill-rule="evenodd" stroke="#F93F64" stroke-width="1.5" stroke-linecap="round" stroke-linejoin="round" />
    <path d="M22.4 20.81L24 20.81" id="Stroke-7" fill="none" fill-rule="evenodd" stroke="#F93F64" stroke-width="1.5" stroke-linecap="round" stroke-linejoin="round" />
    <path d="M20 25.61L25.6 25.61" id="Stroke-9" fill="none" fill-rule="evenodd" stroke="#F93F64" stroke-width="1.5" stroke-linecap="round" stroke-linejoin="round" />
    <path d="M32.8 5.6L32.8 2.01754C32.8 0.903271 31.849 0 30.676 0L14.924 0C13.751 0 12.8 0.903271 12.8 2.01754L12.8 5.6" id="Stroke-11" fill="none" fill-rule="evenodd" stroke="#F93F64" stroke-width="1.5" stroke-linecap="round" stroke-linejoin="round" />
    <path d="M18.4 2.41L28 2.41" id="Stroke-13" fill="none" fill-rule="evenodd" stroke="#F93F64" stroke-width="1.5" stroke-linecap="round" stroke-linejoin="round" />
  </g>
</svg>